<svg width="38" height="38" xmlns="http://www.w3.org/2000/svg" xmlns:xlink="http://www.w3.org/1999/xlink" xml:space="preserve" overflow="hidden"><g transform="translate(-620 -301)"><path d="M32.3 36.1 32.3 32.3C32.3 30.2843 31.4993 28.3512 30.074 26.926 28.6488 25.5007 26.7157 24.7 24.7 24.7L9.5 24.7C7.48435 24.7 5.55127 25.5007 4.12598 26.926 2.70072 28.3512 1.9 30.2843 1.9 32.3L1.9 36.1" stroke="#FFFFFF" stroke-width="3.8" stroke-linecap="round" stroke-linejoin="round" transform="matrix(1.11111 0 0 1 620 301)"/><path d="M17.1 17.1C21.2973 17.1 24.7 13.6974 24.7 9.5 24.7 5.30263 21.2973 1.9 17.1 1.9 12.9026 1.9 9.5 5.30263 9.5 9.5 9.5 13.6974 12.9026 17.1 17.1 17.1Z" stroke="#FFFFFF" stroke-width="3.8" stroke-linecap="round" stroke-linejoin="round" transform="matrix(1.11111 0 0 1 620 301)"/></g></svg>